<svg width="512" height="500" viewBox="0 0 512 500" fill="none" xmlns="http://www.w3.org/2000/svg">
<rect width="512" height="500" fill="#E5E5E5"/>
<path d="M119.467 329.167C91.23 329.167 68.267 351.592 68.267 379.167C68.267 406.742 91.23 429.167 119.467 429.167C147.704 429.167 170.667 406.742 170.667 379.167C170.667 351.592 147.703 329.167 119.467 329.167ZM119.467 412.5C100.642 412.5 85.334 397.55 85.334 379.167C85.334 360.783 100.643 345.834 119.467 345.834C138.291 345.834 153.6 360.784 153.6 379.167C153.6 397.55 138.291 412.5 119.467 412.5Z" fill="white"/>
<path d="M409.6 329.167C381.363 329.167 358.4 351.592 358.4 379.167C358.4 406.742 381.363 429.167 409.6 429.167C437.837 429.167 460.8 406.742 460.8 379.167C460.8 351.592 437.837 329.167 409.6 329.167ZM409.6 412.5C390.775 412.5 375.467 397.55 375.467 379.167C375.467 360.783 390.776 345.834 409.6 345.834C428.425 345.834 443.733 360.784 443.733 379.167C443.733 397.55 428.425 412.5 409.6 412.5Z" fill="white"/>
<path d="M510.643 282.992L433.843 166.325C432.273 163.941 429.568 162.5 426.666 162.5H332.8C328.081 162.5 324.267 166.233 324.267 170.833V379.166C324.267 383.774 328.081 387.499 332.8 387.499H366.933V370.832H341.333V179.167H422.007L494.933 289.95V370.834H452.266V387.5H503.466C508.185 387.5 511.999 383.775 511.999 379.167V287.5C512 285.908 511.531 284.333 510.643 282.992Z" fill="white"/>
<path d="M375.467 270.833V212.5H443.734V195.833H366.934C362.215 195.833 358.401 199.566 358.401 204.166V279.166C358.401 283.774 362.215 287.499 366.934 287.499H494.934V270.832H375.467V270.833Z" fill="white"/>
<path d="M332.8 104.167H8.533C3.823 104.167 0 107.9 0 112.5V379.167C0 383.775 3.823 387.5 8.533 387.5H76.8V370.833H17.067V120.833H324.267V370.833H162.133V387.5H332.8C337.519 387.5 341.333 383.775 341.333 379.167V112.5C341.333 107.9 337.519 104.167 332.8 104.167Z" fill="white"/>
<path d="M59.733 337.5H8.53299V354.167H59.733V337.5Z" fill="white"/>
<path d="M324.267 337.5H179.2V354.167H324.267V337.5Z" fill="white"/>
<path d="M503.466 337.5H469.333V354.167H503.466V337.5Z" fill="white"/>
<path d="M332.8 137.5H34.133V154.167H332.8V137.5Z" fill="white"/>
<path d="M128 370.833H110.933V387.5H128V370.833Z" fill="white"/>
<path d="M418.134 370.833H401.067V387.5H418.134V370.833Z" fill="white"/>
<path d="M153.6 70.833H34.133V87.5H153.6V70.833Z" fill="white"/>
<path d="M17.067 70.833H0V87.5H17.067V70.833Z" fill="white"/>
</svg>
