<svg width="512" height="512" viewBox="0 0 512 512" fill="none" xmlns="http://www.w3.org/2000/svg">
<g clip-path="url(#clip0)">
<path d="M416.314 234.663C416.314 234.661 416.313 234.659 416.313 234.656C414.835 229.24 411.309 224.863 406.638 222.649C350.273 196.816 348.859 193.109 337.946 193.109C333.709 193.109 329.577 194.049 325.666 195.903L269.255 222.648C264.583 224.862 261.056 229.238 259.576 234.663C257.746 241.401 254.675 255.309 254.675 272.75C254.675 319.554 275.974 362.686 320.901 395.014C331.301 402.501 344.576 402.508 354.99 395.014C400.015 362.612 421.216 319.444 421.216 272.751C421.216 255.308 418.145 241.401 416.314 234.663ZM346.169 382.756C341.041 386.445 334.864 386.456 329.724 382.757C288.81 353.309 269.778 314.513 269.778 272.75C269.778 257.061 272.518 244.634 274.149 238.631C274.516 237.284 275.226 236.531 275.724 236.296C334.725 208.789 332.663 208.211 337.946 208.211C343.194 208.211 341.223 208.815 400.169 236.296C400.664 236.531 401.373 237.282 401.741 238.624C403.375 244.636 406.115 257.063 406.115 272.752C406.114 314.436 387.153 353.252 346.169 382.756Z" fill="white"/>
<path d="M429.167 0H166.408C146.612 0 130.507 16.105 130.507 35.9V378.806H87.184C65.506 378.806 47.87 396.443 47.87 418.121V463.379C47.87 490.187 69.68 511.996 96.487 511.996C212.083 511.996 329.563 511.995 410.253 511.999C439.96 511.999 464.129 487.83 464.129 458.123V34.962C464.128 15.684 448.444 0 429.167 0ZM105.404 495.836C82.847 501.421 62.973 484.633 62.973 463.379V418.121C62.973 404.77 73.834 393.909 87.184 393.909H130.513C130.513 393.911 130.513 393.912 130.513 393.913V393.914C130.513 393.915 130.513 393.919 130.513 393.921C130.513 393.926 130.513 393.932 130.513 393.941C130.513 394.006 130.513 394.062 130.513 394.1C130.513 394.113 130.513 394.123 130.513 394.133C130.513 394.14 130.513 394.149 130.513 394.157C130.513 394.161 130.513 394.163 130.513 394.167C130.513 394.17 130.513 394.171 130.513 394.174C130.514 395.821 130.52 406.569 130.55 463.377C130.55 478.971 119.847 492.111 105.404 495.836ZM449.026 458.124C449.025 479.503 431.632 496.897 410.252 496.897H132.236C148.518 479.8 145.404 460.509 145.652 450.67V386.357C145.652 386.089 145.637 385.824 145.61 385.563V35.9C145.61 24.432 154.941 15.102 166.409 15.102H429.167C440.117 15.102 449.026 24.011 449.026 34.961V458.124V458.124Z" fill="white"/>
<path d="M382.411 259.946C379.164 257.328 374.411 257.839 371.793 261.085C321.21 323.496 324.528 320.297 323.54 320.364C322.566 320.427 323.562 320.61 303.42 301.751C300.395 298.881 295.616 299.003 292.744 302.028C289.872 305.053 289.996 309.832 293.021 312.705L312.307 331.016C315.32 333.878 319.341 335.47 323.475 335.47C328.264 335.47 332.958 333.311 336.082 329.437L383.549 270.567C386.167 267.318 385.657 262.564 382.411 259.946Z" fill="white"/>
<path d="M368.898 57.698H176.588C172.418 57.698 169.037 61.078 169.037 65.249C169.037 69.42 172.418 72.8 176.588 72.8H368.897C373.067 72.8 376.448 69.42 376.448 65.249C376.448 61.078 373.068 57.698 368.898 57.698Z" fill="white"/>
<path d="M413.664 57.698H399.103C394.933 57.698 391.552 61.078 391.552 65.249C391.552 69.42 394.933 72.8 399.103 72.8H413.664C417.834 72.8 421.215 69.42 421.215 65.249C421.215 61.078 417.835 57.698 413.664 57.698Z" fill="white"/>
<path d="M413.664 438.105H234.444C230.274 438.105 226.893 441.485 226.893 445.656C226.893 449.827 230.274 453.207 234.444 453.207H413.664C417.834 453.207 421.215 449.827 421.215 445.656C421.216 441.485 417.835 438.105 413.664 438.105Z" fill="white"/>
<path d="M204.239 438.105H176.589C172.419 438.105 169.038 441.485 169.038 445.656C169.038 449.827 172.419 453.207 176.589 453.207H204.239C208.409 453.207 211.79 449.827 211.79 445.656C211.79 441.485 208.409 438.105 204.239 438.105Z" fill="white"/>
<path d="M413.664 112.065H176.588C172.418 112.065 169.037 115.445 169.037 119.616C169.037 123.787 172.418 127.167 176.588 127.167H413.664C417.834 127.167 421.215 123.787 421.215 119.616C421.216 115.445 417.835 112.065 413.664 112.065Z" fill="white"/>
<path d="M413.664 166.432H275.725C271.555 166.432 268.174 169.812 268.174 173.983C268.174 178.154 271.555 181.534 275.725 181.534H413.664C417.834 181.534 421.215 178.154 421.215 173.983C421.215 169.812 417.835 166.432 413.664 166.432Z" fill="white"/>
<path d="M245.52 166.432H176.589C172.419 166.432 169.038 169.812 169.038 173.983C169.038 178.154 172.419 181.534 176.589 181.534H245.52C249.69 181.534 253.071 178.154 253.071 173.983C253.071 169.812 249.69 166.432 245.52 166.432Z" fill="white"/>
<path d="M232.36 220.799H176.588C172.418 220.799 169.037 224.179 169.037 228.35C169.037 232.521 172.418 235.901 176.588 235.901H232.36C236.53 235.901 239.911 232.521 239.911 228.35C239.911 224.179 236.53 220.799 232.36 220.799Z" fill="white"/>
<path d="M232.36 275.167H176.588C172.418 275.167 169.037 278.547 169.037 282.718C169.037 286.889 172.418 290.269 176.588 290.269H232.36C236.53 290.269 239.911 286.889 239.911 282.718C239.911 278.547 236.53 275.167 232.36 275.167Z" fill="white"/>
<path d="M245.449 329.535H176.588C172.418 329.535 169.037 332.915 169.037 337.086C169.037 341.257 172.418 344.637 176.588 344.637H245.449C249.619 344.637 253 341.257 253 337.086C253 332.915 249.62 329.535 245.449 329.535Z" fill="white"/>
<path d="M269.862 383.902H176.588C172.418 383.902 169.037 387.282 169.037 391.453C169.037 395.624 172.418 399.004 176.588 399.004H269.862C274.032 399.004 277.413 395.624 277.413 391.453C277.414 387.282 274.033 383.902 269.862 383.902Z" fill="white"/>
</g>
<defs>
<clipPath id="clip0">
<rect width="511.999" height="511.999" fill="white"/>
</clipPath>
</defs>
</svg>
