<?xml version="1.0" encoding="utf-8"?>
<!-- Generator: Adobe Illustrator 21.0.0, SVG Export Plug-In . SVG Version: 6.00 Build 0)  -->
<svg version="1.1" id="Layer_1" xmlns="http://www.w3.org/2000/svg" xmlns:xlink="http://www.w3.org/1999/xlink" x="0px" y="0px"
	 viewBox="0 0 1676.2 391.2" style="enable-background:new 0 0 1676.2 391.2;" xml:space="preserve">
<style type="text/css">
	.st0{fill:#008681;}
	.st1{fill:#FFFFFF;}
</style>
<path d="M1190.6,6.3c11.2,0,20.4,9.2,20.4,20.4v56.7c12.4-9.6,29.5-16.2,49.3-16.2c40,0,62,25.4,62,62.9v104.2c0,11-9,19.9-20,19.9
	s-19.9-9-19.9-19.9v-94.2c0-26-9.1-35.7-28.6-35.7c-30.1,0-42.8,20.8-42.8,47.8v81.6c0,11.2-9.2,20.4-20.4,20.4s-20.4-9.2-20.4-20.4
	V26.7C1170.2,15.5,1179.4,6.3,1190.6,6.3L1190.6,6.3z"/>
<path d="M1415.8,67.2c59.7,0,87.6,42.2,87.6,94.2s-26.4,94.2-87.6,94.2s-87.6-42.2-87.6-94.2S1356,67.2,1415.8,67.2z"/>
<path d="M1528.7,67.2c10,0,18.3,7.6,19.5,17.3c12.6-10.9,29-17.3,48.8-17.3c50.7,0,79.2,42.2,79.2,94.2s-24.6,94.2-79.2,94.2
	c-17.9,0-34.4-7.1-47.6-19v41.6h-40.2V86.8C1509.1,76,1517.9,67.2,1528.7,67.2L1528.7,67.2z"/>
<path d="M976.3,186.2c8.6,44.6,41.1,69.4,97.5,69.4c44.6,0,90.2-20.7,90.2-75.4c0-51.5-40.8-63.2-76.9-74.3
	c-29.8-9.2-59.5-11.1-58.1-34.2c0-19.3,14.5-31.1,43.3-31.1c29.8,0.6,39.4,11.9,50.2,36c8.7,19.6,43.4,6.5,37-14.8
	c-11.1-37.2-38.6-57.1-88-57.1c-55.1,0-85,29.4-85,69.7c0,46.4,30.6,56.4,62.8,65.5c35.9,10.2,73.8,14.3,73.8,44.9
	c0,23.3-18.9,34-51.4,34c-30.2,0-49.1-15.5-53.4-39.8C1013.7,152.3,972.1,164.4,976.3,186.2z"/>
<rect y="275" class="st0" width="369.8" height="116.2"/>
<path class="st0" d="M408.2,69.1c-13.4,0-25,8.1-30.2,19.6C364.6,76.3,347.2,69,327.1,69c-47.7,0-74.3,41.5-74.3,92.7
	s30.4,92.7,75.4,92.7c17.8,0,34-6.5,46.9-17.6v127c0,15.1,12.4,27.5,27.5,27.5h1271.6V275h-1233V102.1
	C441.3,84,426.4,69.1,408.2,69.1L408.2,69.1z"/>
<path class="st0" d="M213.4,70.4c-18.4,0-33.5,15.1-33.5,33.5v114.3c0,18.4,15.1,33.5,33.5,33.5s33.5-15.1,33.5-33.5V103.9
	C247,85.5,231.9,70.4,213.4,70.4z"/>
<path class="st0" d="M213.4,0C231.9,0,247,15,247,33.5S232,67,213.5,67S180,52,180,33.5C179.9,15,194.9,0,213.4,0L213.4,0z"/>
<path class="st0" d="M144,251.7c17,0,30.9-13.9,30.9-30.9S161,189.9,144,189.9H76.5V45c0-21-17.2-38.2-38.2-38.2C17.2,6.7,0,24,0,45
	v168.2c0,21.2,17.3,38.6,38.6,38.6C73.7,251.7,108.9,251.7,144,251.7z"/>
<path class="st0" d="M482.9,69c18.7,0,34,15.3,34,34v80c0,11,9,20,20,20s20-9,20-20v-79.4c0-19,15.5-34.5,34.5-34.5
	s34.5,15.5,34.5,34.5v117.2c0,17.5-14.3,31.9-31.9,31.9c-15.9,0-29.1-11.7-31.5-27c-12.3,17.5-31.1,27.8-52.4,27.8
	c-38.1,0-61.2-27.8-61.2-63.2v-87.2C448.9,84.3,464.2,69,482.9,69z"/>
<path class="st0" d="M732.8,69c66.7,0,94.1,41.5,94.1,92.7s-27.7,95.2-94.1,93.8c-66.4-1.4-94.1-42.6-94.1-93.8S666,69,732.8,69z"/>
<path class="st0" d="M865.4,69c16,0,29.3,11.7,31.9,26.9c10.7-15,24.1-25.1,41.7-25.1c19,0,32.3,13.2,32.3,29.8
	c0,18.8-10,29.6-27.9,29.8c-22.1,0.2-40.3,2.1-40.3,25.1v61.3c0,19.3-15.8,35.1-35.1,35.1s-35.1-15.8-35.1-35.1V101.6
	C832.9,83.6,847.5,69,865.4,69L865.4,69z"/>
<path class="st1" d="M1381.8,309.1h15.4v12.3c2.7-3,6.6-5,10.9-5c8,0,14.5,4.8,14.5,14.5v26H1407v-23.1c0-2.6-2.1-4.8-4.8-4.8
	c-2.6,0-4.8,2.1-4.8,4.8v23.1h-15.6V309.1z"/>
<polygon class="st1" points="1508.6,309.1 1523.9,309.1 1523.9,328 1532.6,317.4 1550.3,317.4 1536.2,332.4 1552.6,357 1533.7,357 
	1526,343.3 1523.9,345.5 1523.9,357 1508.6,357 "/>
<path class="st1" d="M1353.9,309.8c14.5,0,23.8,4.8,25.7,18.7h-16.5c-1.1-4.1-3.7-6.8-8.5-6.8c-6.4,0-9.5,5.4-9.5,12
	c0,6.7,3.3,12,9.5,12c4.6,0,7.3-3.2,8.4-7.6h16.8c-1.5,14.6-12.1,19.5-25.9,19.5c-15,0-26.1-10.8-26.1-24
	C1327.8,320.5,1337.5,309.8,1353.9,309.8L1353.9,309.8z"/>
<path class="st1" d="M1487.3,316.3c10.4,0,19,5.1,20.5,16.8h-14.7c-0.7-2.9-2.2-4.9-5.4-4.9c-4.5,0-5.7,4.1-5.7,9.1s1.6,9.1,5.7,9.1
	c3.2,0,4.9-2.3,5.5-5.7h14.6c-1.3,11.7-8.9,16.9-20.5,16.9c-12.9,0-20.8-9.2-20.8-20.6C1466.6,325.6,1475.9,316.3,1487.3,316.3
	L1487.3,316.3z"/>
<path class="st1" d="M1444.8,316.8c12.8,0,21.4,8.1,21.4,21.4l-0.1,3h-27.8c0.7,3.8,3.5,6.5,7.1,6.5c2.3,0,4.4-1.1,6.1-2.8h13.9
	c-2.5,8.8-10,13.2-20.5,13.2c-12.9,0-21.4-9.2-21.4-20.7C1423.4,326,1432,316.8,1444.8,316.8z"/>
<path class="st1" d="M1565.9,316.4c12.8,0,21.4,8.1,21.4,21.4l-0.1,3h-27.8c0.7,3.8,3.5,6.5,7.1,6.5c2.3,0,4.4-1.1,6.1-2.8h13.9
	c-2.5,8.8-10,13.2-20.5,13.2c-12.9,0-21.4-9.2-21.4-20.7C1544.5,325.6,1553.1,316.4,1565.9,316.4z"/>
<path class="st1" d="M1653.2,329.1c0-7.7-5.7-13-19.1-13c-8.5,0-14.1,2.6-16.6,6.8v-6c-6.5-1.8-11.4-0.3-15.2,5.5v-5.2h-14.8V357
	h15.6v-17.2c0-7.9,4-11.6,12.9-9.5c1.6,13.7,23.4,8.7,23.4,14.5c0,1.5-2.1,2.6-4.7,2.6c-3.6,0-4.9-2.2-5-4.6H1615
	c0,8.6,7.1,14.5,19.4,14.5c11.4,0,20-4.3,20-13.8c0-15.6-23.7-11-23.7-16.1c0-1.3,1.6-2.3,4-2.3c2.5,0,4.3,1.9,4.4,4L1653.2,329.1
	L1653.2,329.1z"/>
<path class="st1" d="M1415.8,102.1c34.7,0,46.8,26.8,46.8,59.9s-11.2,59.9-46.8,59.9S1369,195,1369,162S1381.1,102.1,1415.8,102.1z"
	/>
<path class="st1" d="M349.7,115.6c20,0,27.2,20.8,27.2,46.6s-8.6,46.6-27.2,46.6s-27.2-20.8-27.2-46.6S329.8,115.6,349.7,115.6z"/>
<path class="st1" d="M733.7,117.5c19.8,0,27.9,19.7,27.9,43.9c0,24.3-8.2,45.1-27.9,44.5c-19.7-0.7-27.9-20.2-27.9-44.5
	C705.8,137.2,713.9,117.5,733.7,117.5z"/>
<path class="st1" d="M1591.9,102.1c34.3,0,43.2,26.8,43.2,59.9s-10.8,59.9-43.2,59.9c-28.3,0-43.2-26.8-43.2-59.9
	S1560.1,102.1,1591.9,102.1z"/>
<path class="st0" d="M1445,327.1c3.3,0,6,2.4,6.4,5.6h-13C1438.9,329.5,1441.7,327.1,1445,327.1z"/>
<path class="st0" d="M1566.2,326.7c3.3,0,6,2.4,6.4,5.6h-13C1560.1,329.1,1562.8,326.7,1566.2,326.7z"/>
</svg>
